<mxfile host="app.diagrams.net" modified="2021-09-14T12:39:31.470Z" agent="5.0 (Windows NT 10.0; Win64; x64) AppleWebKit/537.36 (KHTML, like Gecko) Chrome/93.0.4577.63 Safari/537.36" etag="4gqgcMWu0Bwj_ijlpZPH" version="15.1.2" type="github">
  <diagram id="4jYUdFYsUS8tvo6zC_qO" name="Page-1">
    <mxGraphModel dx="1038" dy="547" grid="1" gridSize="10" guides="1" tooltips="1" connect="1" arrows="1" fold="1" page="1" pageScale="1" pageWidth="827" pageHeight="1169" math="0" shadow="0">
      <root>
        <mxCell id="0" />
        <mxCell id="1" parent="0" />
        <mxCell id="isAUqdjpt8H6YtncFvwV-3" value="SubUnit" style="rounded=0;whiteSpace=wrap;html=1;" parent="1" vertex="1">
          <mxGeometry x="30" y="60" width="120" height="60" as="geometry" />
        </mxCell>
        <mxCell id="isAUqdjpt8H6YtncFvwV-4" value="Picture Order" style="rounded=0;whiteSpace=wrap;html=1;" parent="1" vertex="1">
          <mxGeometry x="300" y="20" width="120" height="60" as="geometry" />
        </mxCell>
        <mxCell id="isAUqdjpt8H6YtncFvwV-5" value="Customer" style="rounded=0;whiteSpace=wrap;html=1;" parent="1" vertex="1">
          <mxGeometry x="550" y="70" width="120" height="60" as="geometry" />
        </mxCell>
        <mxCell id="isAUqdjpt8H6YtncFvwV-6" value="Picture Delivery Orderline" style="rounded=0;whiteSpace=wrap;html=1;" parent="1" vertex="1">
          <mxGeometry x="250" y="220" width="120" height="60" as="geometry" />
        </mxCell>
        <mxCell id="isAUqdjpt8H6YtncFvwV-7" value="Picture Payment Orderline" style="rounded=0;whiteSpace=wrap;html=1;" parent="1" vertex="1">
          <mxGeometry x="470" y="220" width="120" height="60" as="geometry" />
        </mxCell>
        <mxCell id="isAUqdjpt8H6YtncFvwV-8" value="Picture Delivery" style="rounded=0;whiteSpace=wrap;html=1;" parent="1" vertex="1">
          <mxGeometry x="230" y="360" width="120" height="60" as="geometry" />
        </mxCell>
        <mxCell id="isAUqdjpt8H6YtncFvwV-9" value="Picture Payment" style="rounded=0;whiteSpace=wrap;html=1;" parent="1" vertex="1">
          <mxGeometry x="510" y="350" width="120" height="60" as="geometry" />
        </mxCell>
        <mxCell id="isAUqdjpt8H6YtncFvwV-10" value="Picture" style="rounded=0;whiteSpace=wrap;html=1;" parent="1" vertex="1">
          <mxGeometry x="20" y="470" width="120" height="60" as="geometry" />
        </mxCell>
        <mxCell id="isAUqdjpt8H6YtncFvwV-11" value="Money" style="rounded=0;whiteSpace=wrap;html=1;" parent="1" vertex="1">
          <mxGeometry x="590" y="470" width="120" height="60" as="geometry" />
        </mxCell>
        <mxCell id="isAUqdjpt8H6YtncFvwV-12" value="Picture Type" style="rounded=0;whiteSpace=wrap;html=1;" parent="1" vertex="1">
          <mxGeometry x="20" y="270" width="120" height="60" as="geometry" />
        </mxCell>
        <mxCell id="isAUqdjpt8H6YtncFvwV-13" value="Has participant" style="endArrow=none;html=1;exitX=1;exitY=0.5;exitDx=0;exitDy=0;entryX=-0.023;entryY=0.623;entryDx=0;entryDy=0;entryPerimeter=0;" parent="1" source="isAUqdjpt8H6YtncFvwV-3" target="isAUqdjpt8H6YtncFvwV-4" edge="1">
          <mxGeometry width="50" height="50" relative="1" as="geometry">
            <mxPoint x="150" y="130" as="sourcePoint" />
            <mxPoint x="290" y="60" as="targetPoint" />
          </mxGeometry>
        </mxCell>
        <mxCell id="isAUqdjpt8H6YtncFvwV-15" value="" style="endArrow=none;html=1;exitX=1;exitY=0.5;exitDx=0;exitDy=0;entryX=0.5;entryY=0;entryDx=0;entryDy=0;" parent="1" source="isAUqdjpt8H6YtncFvwV-4" target="isAUqdjpt8H6YtncFvwV-5" edge="1">
          <mxGeometry width="50" height="50" relative="1" as="geometry">
            <mxPoint x="460" y="80" as="sourcePoint" />
            <mxPoint x="572" y="100" as="targetPoint" />
          </mxGeometry>
        </mxCell>
        <mxCell id="isAUqdjpt8H6YtncFvwV-111" value="Has participant" style="edgeLabel;html=1;align=center;verticalAlign=middle;resizable=0;points=[];" parent="isAUqdjpt8H6YtncFvwV-15" vertex="1" connectable="0">
          <mxGeometry x="-0.3181" y="-1" relative="1" as="geometry">
            <mxPoint as="offset" />
          </mxGeometry>
        </mxCell>
        <mxCell id="isAUqdjpt8H6YtncFvwV-17" value="" style="endArrow=none;html=1;entryX=0.417;entryY=1;entryDx=0;entryDy=0;entryPerimeter=0;exitX=0.5;exitY=0;exitDx=0;exitDy=0;" parent="1" source="isAUqdjpt8H6YtncFvwV-6" target="isAUqdjpt8H6YtncFvwV-4" edge="1">
          <mxGeometry width="50" height="50" relative="1" as="geometry">
            <mxPoint x="310" y="180" as="sourcePoint" />
            <mxPoint x="360" y="130" as="targetPoint" />
          </mxGeometry>
        </mxCell>
        <mxCell id="isAUqdjpt8H6YtncFvwV-18" value="" style="endArrow=none;html=1;entryX=0.5;entryY=0;entryDx=0;entryDy=0;exitX=0.5;exitY=1;exitDx=0;exitDy=0;" parent="1" source="isAUqdjpt8H6YtncFvwV-4" target="isAUqdjpt8H6YtncFvwV-7" edge="1">
          <mxGeometry width="50" height="50" relative="1" as="geometry">
            <mxPoint x="390" y="180" as="sourcePoint" />
            <mxPoint x="440" y="130" as="targetPoint" />
          </mxGeometry>
        </mxCell>
        <mxCell id="isAUqdjpt8H6YtncFvwV-19" value="" style="endArrow=none;html=1;entryX=0;entryY=0.5;entryDx=0;entryDy=0;exitX=1;exitY=0.5;exitDx=0;exitDy=0;" parent="1" source="isAUqdjpt8H6YtncFvwV-6" target="isAUqdjpt8H6YtncFvwV-7" edge="1">
          <mxGeometry width="50" height="50" relative="1" as="geometry">
            <mxPoint x="350" y="300" as="sourcePoint" />
            <mxPoint x="400" y="250" as="targetPoint" />
          </mxGeometry>
        </mxCell>
        <mxCell id="isAUqdjpt8H6YtncFvwV-22" value="dual" style="endArrow=none;html=1;entryX=0;entryY=0.5;entryDx=0;entryDy=0;" parent="1" target="isAUqdjpt8H6YtncFvwV-9" edge="1">
          <mxGeometry width="50" height="50" relative="1" as="geometry">
            <mxPoint x="350" y="380" as="sourcePoint" />
            <mxPoint x="450" y="389.5" as="targetPoint" />
            <mxPoint as="offset" />
          </mxGeometry>
        </mxCell>
        <mxCell id="isAUqdjpt8H6YtncFvwV-23" value="fulfils" style="endArrow=none;html=1;exitX=0.5;exitY=0;exitDx=0;exitDy=0;entryX=0.5;entryY=1;entryDx=0;entryDy=0;" parent="1" source="isAUqdjpt8H6YtncFvwV-8" target="isAUqdjpt8H6YtncFvwV-6" edge="1">
          <mxGeometry width="50" height="50" relative="1" as="geometry">
            <mxPoint x="220" y="350" as="sourcePoint" />
            <mxPoint x="270" y="300" as="targetPoint" />
          </mxGeometry>
        </mxCell>
        <mxCell id="isAUqdjpt8H6YtncFvwV-24" value="fulfils" style="endArrow=none;html=1;exitX=0.367;exitY=-0.01;exitDx=0;exitDy=0;entryX=0.5;entryY=1;entryDx=0;entryDy=0;exitPerimeter=0;" parent="1" source="isAUqdjpt8H6YtncFvwV-9" edge="1">
          <mxGeometry width="50" height="50" relative="1" as="geometry">
            <mxPoint x="550" y="340" as="sourcePoint" />
            <mxPoint x="550" y="280" as="targetPoint" />
            <Array as="points">
              <mxPoint x="550.5" y="310" />
            </Array>
          </mxGeometry>
        </mxCell>
        <mxCell id="isAUqdjpt8H6YtncFvwV-25" value="" style="endArrow=none;html=1;exitX=0.65;exitY=-0.017;exitDx=0;exitDy=0;exitPerimeter=0;entryX=0.593;entryY=1;entryDx=0;entryDy=0;entryPerimeter=0;" parent="1" source="isAUqdjpt8H6YtncFvwV-11" target="isAUqdjpt8H6YtncFvwV-9" edge="1">
          <mxGeometry width="50" height="50" relative="1" as="geometry">
            <mxPoint x="520" y="470" as="sourcePoint" />
            <mxPoint x="570" y="420" as="targetPoint" />
          </mxGeometry>
        </mxCell>
        <mxCell id="isAUqdjpt8H6YtncFvwV-29" value="" style="endArrow=none;html=1;entryX=0.5;entryY=1;entryDx=0;entryDy=0;" parent="1" target="isAUqdjpt8H6YtncFvwV-12" edge="1">
          <mxGeometry width="50" height="50" relative="1" as="geometry">
            <mxPoint x="80" y="470" as="sourcePoint" />
            <mxPoint x="120" y="360" as="targetPoint" />
          </mxGeometry>
        </mxCell>
        <mxCell id="isAUqdjpt8H6YtncFvwV-30" value="reserves" style="endArrow=none;html=1;exitX=1;exitY=0.75;exitDx=0;exitDy=0;entryX=0;entryY=0.75;entryDx=0;entryDy=0;" parent="1" source="isAUqdjpt8H6YtncFvwV-12" target="isAUqdjpt8H6YtncFvwV-6" edge="1">
          <mxGeometry width="50" height="50" relative="1" as="geometry">
            <mxPoint x="140" y="330" as="sourcePoint" />
            <mxPoint x="190" y="280" as="targetPoint" />
          </mxGeometry>
        </mxCell>
        <mxCell id="isAUqdjpt8H6YtncFvwV-31" value="customer" style="rounded=0;whiteSpace=wrap;html=1;" parent="1" vertex="1">
          <mxGeometry x="80" y="1530" width="120" height="60" as="geometry" />
        </mxCell>
        <mxCell id="isAUqdjpt8H6YtncFvwV-32" value="SubUnit" style="rounded=0;whiteSpace=wrap;html=1;" parent="1" vertex="1">
          <mxGeometry x="827" y="50" width="120" height="60" as="geometry" />
        </mxCell>
        <mxCell id="isAUqdjpt8H6YtncFvwV-33" value="Frame Order" style="rounded=0;whiteSpace=wrap;html=1;" parent="1" vertex="1">
          <mxGeometry x="1107" y="20" width="120" height="60" as="geometry" />
        </mxCell>
        <mxCell id="isAUqdjpt8H6YtncFvwV-34" value="&lt;div style=&quot;text-align: left&quot;&gt;&lt;span style=&quot;font-size: 15px&quot;&gt;&lt;font color=&quot;#212529&quot;&gt;Frame Supplier&lt;/font&gt;&lt;/span&gt;&lt;/div&gt;" style="rounded=0;whiteSpace=wrap;html=1;" parent="1" vertex="1">
          <mxGeometry x="1330" y="70" width="120" height="60" as="geometry" />
        </mxCell>
        <mxCell id="isAUqdjpt8H6YtncFvwV-35" value="&lt;div&gt;Frame Delivery Orderline&lt;/div&gt;" style="rounded=0;whiteSpace=wrap;html=1;" parent="1" vertex="1">
          <mxGeometry x="1040" y="230" width="120" height="60" as="geometry" />
        </mxCell>
        <mxCell id="isAUqdjpt8H6YtncFvwV-36" value="Frame Payment Orderline" style="rounded=0;whiteSpace=wrap;html=1;" parent="1" vertex="1">
          <mxGeometry x="1280" y="230" width="120" height="60" as="geometry" />
        </mxCell>
        <mxCell id="isAUqdjpt8H6YtncFvwV-37" value="&lt;div&gt;Frame Delivery&lt;/div&gt;" style="rounded=0;whiteSpace=wrap;html=1;" parent="1" vertex="1">
          <mxGeometry x="987" y="360" width="120" height="60" as="geometry" />
        </mxCell>
        <mxCell id="isAUqdjpt8H6YtncFvwV-38" value="Frame Payment" style="rounded=0;whiteSpace=wrap;html=1;" parent="1" vertex="1">
          <mxGeometry x="1280" y="360" width="120" height="60" as="geometry" />
        </mxCell>
        <mxCell id="isAUqdjpt8H6YtncFvwV-39" value="&lt;div&gt;Frame&lt;/div&gt;" style="rounded=0;whiteSpace=wrap;html=1;" parent="1" vertex="1">
          <mxGeometry x="827" y="470" width="120" height="60" as="geometry" />
        </mxCell>
        <mxCell id="isAUqdjpt8H6YtncFvwV-40" value="Money" style="rounded=0;whiteSpace=wrap;html=1;" parent="1" vertex="1">
          <mxGeometry x="1280" y="480" width="120" height="60" as="geometry" />
        </mxCell>
        <mxCell id="isAUqdjpt8H6YtncFvwV-41" value="Frame Type" style="rounded=0;whiteSpace=wrap;html=1;" parent="1" vertex="1">
          <mxGeometry x="827" y="270" width="120" height="60" as="geometry" />
        </mxCell>
        <mxCell id="isAUqdjpt8H6YtncFvwV-42" value="" style="endArrow=none;html=1;exitX=1;exitY=0.5;exitDx=0;exitDy=0;entryX=0;entryY=0.5;entryDx=0;entryDy=0;" parent="1" source="isAUqdjpt8H6YtncFvwV-32" target="isAUqdjpt8H6YtncFvwV-33" edge="1">
          <mxGeometry width="50" height="50" relative="1" as="geometry">
            <mxPoint x="957" y="130" as="sourcePoint" />
            <mxPoint x="1100" y="50" as="targetPoint" />
          </mxGeometry>
        </mxCell>
        <mxCell id="isAUqdjpt8H6YtncFvwV-43" value="" style="endArrow=none;html=1;exitX=1;exitY=0.5;exitDx=0;exitDy=0;entryX=0.5;entryY=0;entryDx=0;entryDy=0;" parent="1" source="isAUqdjpt8H6YtncFvwV-33" target="isAUqdjpt8H6YtncFvwV-34" edge="1">
          <mxGeometry width="50" height="50" relative="1" as="geometry">
            <mxPoint x="1267" y="80" as="sourcePoint" />
            <mxPoint x="1379" y="100" as="targetPoint" />
          </mxGeometry>
        </mxCell>
        <mxCell id="isAUqdjpt8H6YtncFvwV-82" value="Has participant" style="edgeLabel;html=1;align=center;verticalAlign=middle;resizable=0;points=[];" parent="isAUqdjpt8H6YtncFvwV-43" vertex="1" connectable="0">
          <mxGeometry x="-0.2201" y="-4" relative="1" as="geometry">
            <mxPoint x="-260" y="-2" as="offset" />
          </mxGeometry>
        </mxCell>
        <mxCell id="isAUqdjpt8H6YtncFvwV-44" value="" style="endArrow=none;html=1;entryX=0.5;entryY=1;entryDx=0;entryDy=0;exitX=0.5;exitY=0;exitDx=0;exitDy=0;" parent="1" source="isAUqdjpt8H6YtncFvwV-35" target="isAUqdjpt8H6YtncFvwV-33" edge="1">
          <mxGeometry width="50" height="50" relative="1" as="geometry">
            <mxPoint x="1117" y="180" as="sourcePoint" />
            <mxPoint x="1167" y="130" as="targetPoint" />
          </mxGeometry>
        </mxCell>
        <mxCell id="isAUqdjpt8H6YtncFvwV-45" value="" style="endArrow=none;html=1;entryX=0.5;entryY=0;entryDx=0;entryDy=0;exitX=0.624;exitY=1.004;exitDx=0;exitDy=0;exitPerimeter=0;" parent="1" source="isAUqdjpt8H6YtncFvwV-33" target="isAUqdjpt8H6YtncFvwV-36" edge="1">
          <mxGeometry width="50" height="50" relative="1" as="geometry">
            <mxPoint x="1197" y="180" as="sourcePoint" />
            <mxPoint x="1247" y="130" as="targetPoint" />
          </mxGeometry>
        </mxCell>
        <mxCell id="isAUqdjpt8H6YtncFvwV-46" value="reciprocity" style="endArrow=none;html=1;entryX=0;entryY=0.5;entryDx=0;entryDy=0;exitX=1;exitY=0.5;exitDx=0;exitDy=0;" parent="1" source="isAUqdjpt8H6YtncFvwV-35" target="isAUqdjpt8H6YtncFvwV-36" edge="1">
          <mxGeometry width="50" height="50" relative="1" as="geometry">
            <mxPoint x="1157" y="300" as="sourcePoint" />
            <mxPoint x="1207" y="250" as="targetPoint" />
          </mxGeometry>
        </mxCell>
        <mxCell id="isAUqdjpt8H6YtncFvwV-47" value="dual" style="endArrow=none;html=1;entryX=0;entryY=0.5;entryDx=0;entryDy=0;exitX=1;exitY=0.5;exitDx=0;exitDy=0;" parent="1" target="isAUqdjpt8H6YtncFvwV-38" edge="1">
          <mxGeometry width="50" height="50" relative="1" as="geometry">
            <mxPoint x="1107" y="389.5" as="sourcePoint" />
            <mxPoint x="1257" y="389.5" as="targetPoint" />
          </mxGeometry>
        </mxCell>
        <mxCell id="isAUqdjpt8H6YtncFvwV-48" value="fulfils" style="endArrow=none;html=1;exitX=0.5;exitY=0;exitDx=0;exitDy=0;entryX=0.5;entryY=1;entryDx=0;entryDy=0;" parent="1" source="isAUqdjpt8H6YtncFvwV-37" target="isAUqdjpt8H6YtncFvwV-35" edge="1">
          <mxGeometry width="50" height="50" relative="1" as="geometry">
            <mxPoint x="1027" y="350" as="sourcePoint" />
            <mxPoint x="1077" y="300" as="targetPoint" />
          </mxGeometry>
        </mxCell>
        <mxCell id="isAUqdjpt8H6YtncFvwV-49" value="fulfils" style="endArrow=none;html=1;exitX=0.5;exitY=0;exitDx=0;exitDy=0;entryX=0.25;entryY=1;entryDx=0;entryDy=0;" parent="1" target="isAUqdjpt8H6YtncFvwV-36" edge="1">
          <mxGeometry width="50" height="50" relative="1" as="geometry">
            <mxPoint x="1316.5000000000002" y="360" as="sourcePoint" />
            <mxPoint x="1316.5000000000002" y="300" as="targetPoint" />
          </mxGeometry>
        </mxCell>
        <mxCell id="isAUqdjpt8H6YtncFvwV-50" value="" style="endArrow=none;html=1;" parent="1" source="isAUqdjpt8H6YtncFvwV-40" edge="1">
          <mxGeometry width="50" height="50" relative="1" as="geometry">
            <mxPoint x="1327" y="470" as="sourcePoint" />
            <mxPoint x="1330" y="420" as="targetPoint" />
          </mxGeometry>
        </mxCell>
        <mxCell id="isAUqdjpt8H6YtncFvwV-51" value="" style="endArrow=none;html=1;exitX=0.5;exitY=0;exitDx=0;exitDy=0;" parent="1" source="isAUqdjpt8H6YtncFvwV-39" edge="1">
          <mxGeometry width="50" height="50" relative="1" as="geometry">
            <mxPoint x="991" y="470" as="sourcePoint" />
            <mxPoint x="1041" y="420" as="targetPoint" />
          </mxGeometry>
        </mxCell>
        <mxCell id="isAUqdjpt8H6YtncFvwV-52" value="" style="endArrow=none;html=1;entryX=0.5;entryY=1;entryDx=0;entryDy=0;" parent="1" target="isAUqdjpt8H6YtncFvwV-41" edge="1">
          <mxGeometry width="50" height="50" relative="1" as="geometry">
            <mxPoint x="887" y="470" as="sourcePoint" />
            <mxPoint x="927" y="360" as="targetPoint" />
          </mxGeometry>
        </mxCell>
        <mxCell id="isAUqdjpt8H6YtncFvwV-53" value="reserves" style="endArrow=none;html=1;exitX=1;exitY=0.75;exitDx=0;exitDy=0;entryX=0;entryY=0.75;entryDx=0;entryDy=0;" parent="1" source="isAUqdjpt8H6YtncFvwV-41" target="isAUqdjpt8H6YtncFvwV-35" edge="1">
          <mxGeometry width="50" height="50" relative="1" as="geometry">
            <mxPoint x="947" y="330" as="sourcePoint" />
            <mxPoint x="997" y="280" as="targetPoint" />
          </mxGeometry>
        </mxCell>
        <mxCell id="isAUqdjpt8H6YtncFvwV-54" value="SubUnit" style="rounded=0;whiteSpace=wrap;html=1;" parent="1" vertex="1">
          <mxGeometry x="840" y="690" width="120" height="60" as="geometry" />
        </mxCell>
        <mxCell id="isAUqdjpt8H6YtncFvwV-55" value="&lt;div&gt;Fossil Order&lt;/div&gt;" style="rounded=0;whiteSpace=wrap;html=1;" parent="1" vertex="1">
          <mxGeometry x="1120" y="660" width="120" height="60" as="geometry" />
        </mxCell>
        <mxCell id="isAUqdjpt8H6YtncFvwV-56" value="&lt;div style=&quot;text-align: left&quot;&gt;&lt;font color=&quot;#212529&quot;&gt;&lt;span style=&quot;font-size: 15px&quot;&gt;Fossil Supplier&lt;/span&gt;&lt;/font&gt;&lt;br&gt;&lt;/div&gt;" style="rounded=0;whiteSpace=wrap;html=1;" parent="1" vertex="1">
          <mxGeometry x="1343" y="710" width="120" height="60" as="geometry" />
        </mxCell>
        <mxCell id="isAUqdjpt8H6YtncFvwV-57" value="&lt;div&gt;Fossil Delivery Orderline&lt;/div&gt;" style="rounded=0;whiteSpace=wrap;html=1;" parent="1" vertex="1">
          <mxGeometry x="1040" y="880" width="120" height="60" as="geometry" />
        </mxCell>
        <mxCell id="isAUqdjpt8H6YtncFvwV-58" value="&lt;div&gt;Fossil Payment Orderline&lt;/div&gt;" style="rounded=0;whiteSpace=wrap;html=1;" parent="1" vertex="1">
          <mxGeometry x="1270" y="880" width="120" height="60" as="geometry" />
        </mxCell>
        <mxCell id="isAUqdjpt8H6YtncFvwV-59" value="&lt;div&gt;Fossil Delivery&lt;/div&gt;" style="rounded=0;whiteSpace=wrap;html=1;" parent="1" vertex="1">
          <mxGeometry x="1040" y="1010" width="120" height="60" as="geometry" />
        </mxCell>
        <mxCell id="isAUqdjpt8H6YtncFvwV-60" value="Fossil Payment" style="rounded=0;whiteSpace=wrap;html=1;" parent="1" vertex="1">
          <mxGeometry x="1270" y="1000" width="120" height="60" as="geometry" />
        </mxCell>
        <mxCell id="isAUqdjpt8H6YtncFvwV-61" value="&lt;div&gt;Fossils&lt;/div&gt;" style="rounded=0;whiteSpace=wrap;html=1;" parent="1" vertex="1">
          <mxGeometry x="840" y="1110" width="120" height="60" as="geometry" />
        </mxCell>
        <mxCell id="isAUqdjpt8H6YtncFvwV-62" value="Money" style="rounded=0;whiteSpace=wrap;html=1;" parent="1" vertex="1">
          <mxGeometry x="1320" y="1120" width="120" height="60" as="geometry" />
        </mxCell>
        <mxCell id="isAUqdjpt8H6YtncFvwV-63" value="Fossil Type" style="rounded=0;whiteSpace=wrap;html=1;" parent="1" vertex="1">
          <mxGeometry x="840" y="910" width="120" height="60" as="geometry" />
        </mxCell>
        <mxCell id="isAUqdjpt8H6YtncFvwV-64" value="" style="endArrow=none;html=1;exitX=1;exitY=0.5;exitDx=0;exitDy=0;entryX=0;entryY=0.5;entryDx=0;entryDy=0;" parent="1" source="isAUqdjpt8H6YtncFvwV-54" target="isAUqdjpt8H6YtncFvwV-55" edge="1">
          <mxGeometry width="50" height="50" relative="1" as="geometry">
            <mxPoint x="970" y="770" as="sourcePoint" />
            <mxPoint x="1113" y="690" as="targetPoint" />
          </mxGeometry>
        </mxCell>
        <mxCell id="isAUqdjpt8H6YtncFvwV-65" value="" style="endArrow=none;html=1;exitX=1;exitY=0.5;exitDx=0;exitDy=0;entryX=0.5;entryY=0;entryDx=0;entryDy=0;" parent="1" source="isAUqdjpt8H6YtncFvwV-55" target="isAUqdjpt8H6YtncFvwV-56" edge="1">
          <mxGeometry width="50" height="50" relative="1" as="geometry">
            <mxPoint x="1280" y="720" as="sourcePoint" />
            <mxPoint x="1392" y="740" as="targetPoint" />
          </mxGeometry>
        </mxCell>
        <mxCell id="isAUqdjpt8H6YtncFvwV-76" value="Has participant" style="edgeLabel;html=1;align=center;verticalAlign=middle;resizable=0;points=[];" parent="isAUqdjpt8H6YtncFvwV-65" vertex="1" connectable="0">
          <mxGeometry x="-0.3575" relative="1" as="geometry">
            <mxPoint x="7" as="offset" />
          </mxGeometry>
        </mxCell>
        <mxCell id="isAUqdjpt8H6YtncFvwV-66" value="" style="endArrow=none;html=1;entryX=0.417;entryY=1;entryDx=0;entryDy=0;entryPerimeter=0;exitX=0.5;exitY=0;exitDx=0;exitDy=0;" parent="1" source="isAUqdjpt8H6YtncFvwV-57" target="isAUqdjpt8H6YtncFvwV-55" edge="1">
          <mxGeometry width="50" height="50" relative="1" as="geometry">
            <mxPoint x="1130" y="820" as="sourcePoint" />
            <mxPoint x="1180" y="770" as="targetPoint" />
          </mxGeometry>
        </mxCell>
        <mxCell id="isAUqdjpt8H6YtncFvwV-67" value="" style="endArrow=none;html=1;entryX=0.5;entryY=0;entryDx=0;entryDy=0;exitX=0.5;exitY=1;exitDx=0;exitDy=0;" parent="1" source="isAUqdjpt8H6YtncFvwV-55" target="isAUqdjpt8H6YtncFvwV-58" edge="1">
          <mxGeometry width="50" height="50" relative="1" as="geometry">
            <mxPoint x="1210" y="820" as="sourcePoint" />
            <mxPoint x="1260" y="770" as="targetPoint" />
          </mxGeometry>
        </mxCell>
        <mxCell id="isAUqdjpt8H6YtncFvwV-68" value="reciprocity" style="endArrow=none;html=1;entryX=0;entryY=0.5;entryDx=0;entryDy=0;exitX=1;exitY=0.5;exitDx=0;exitDy=0;" parent="1" source="isAUqdjpt8H6YtncFvwV-57" target="isAUqdjpt8H6YtncFvwV-58" edge="1">
          <mxGeometry width="50" height="50" relative="1" as="geometry">
            <mxPoint x="1170" y="940" as="sourcePoint" />
            <mxPoint x="1220" y="890" as="targetPoint" />
          </mxGeometry>
        </mxCell>
        <mxCell id="isAUqdjpt8H6YtncFvwV-69" value="dual" style="endArrow=none;html=1;entryX=0;entryY=0.5;entryDx=0;entryDy=0;exitX=1;exitY=0.325;exitDx=0;exitDy=0;exitPerimeter=0;" parent="1" source="isAUqdjpt8H6YtncFvwV-59" edge="1">
          <mxGeometry width="50" height="50" relative="1" as="geometry">
            <mxPoint x="1160" y="1030" as="sourcePoint" />
            <mxPoint x="1269.9999999999995" y="1029.5" as="targetPoint" />
          </mxGeometry>
        </mxCell>
        <mxCell id="isAUqdjpt8H6YtncFvwV-70" value="fulfils" style="endArrow=none;html=1;exitX=0.5;exitY=0;exitDx=0;exitDy=0;entryX=0.5;entryY=1;entryDx=0;entryDy=0;" parent="1" source="isAUqdjpt8H6YtncFvwV-59" target="isAUqdjpt8H6YtncFvwV-57" edge="1">
          <mxGeometry width="50" height="50" relative="1" as="geometry">
            <mxPoint x="1040" y="990" as="sourcePoint" />
            <mxPoint x="1090" y="940" as="targetPoint" />
          </mxGeometry>
        </mxCell>
        <mxCell id="isAUqdjpt8H6YtncFvwV-71" value="fulfils" style="endArrow=none;html=1;exitX=0.5;exitY=0;exitDx=0;exitDy=0;entryX=0.5;entryY=1;entryDx=0;entryDy=0;" parent="1" edge="1">
          <mxGeometry width="50" height="50" relative="1" as="geometry">
            <mxPoint x="1329.5" y="1000" as="sourcePoint" />
            <mxPoint x="1329.5" y="940" as="targetPoint" />
          </mxGeometry>
        </mxCell>
        <mxCell id="isAUqdjpt8H6YtncFvwV-72" value="" style="endArrow=none;html=1;exitX=0.65;exitY=-0.017;exitDx=0;exitDy=0;exitPerimeter=0;entryX=0.593;entryY=1;entryDx=0;entryDy=0;entryPerimeter=0;" parent="1" source="isAUqdjpt8H6YtncFvwV-62" target="isAUqdjpt8H6YtncFvwV-60" edge="1">
          <mxGeometry width="50" height="50" relative="1" as="geometry">
            <mxPoint x="1340" y="1110" as="sourcePoint" />
            <mxPoint x="1390" y="1060" as="targetPoint" />
          </mxGeometry>
        </mxCell>
        <mxCell id="isAUqdjpt8H6YtncFvwV-73" value="" style="endArrow=none;html=1;exitX=0.5;exitY=0;exitDx=0;exitDy=0;entryX=0;entryY=0.5;entryDx=0;entryDy=0;" parent="1" source="isAUqdjpt8H6YtncFvwV-61" target="isAUqdjpt8H6YtncFvwV-59" edge="1">
          <mxGeometry width="50" height="50" relative="1" as="geometry">
            <mxPoint x="1004" y="1110" as="sourcePoint" />
            <mxPoint x="1054" y="1060" as="targetPoint" />
          </mxGeometry>
        </mxCell>
        <mxCell id="isAUqdjpt8H6YtncFvwV-78" value="Text" style="edgeLabel;html=1;align=center;verticalAlign=middle;resizable=0;points=[];" parent="isAUqdjpt8H6YtncFvwV-73" vertex="1" connectable="0">
          <mxGeometry x="0.1653" y="-1" relative="1" as="geometry">
            <mxPoint as="offset" />
          </mxGeometry>
        </mxCell>
        <mxCell id="isAUqdjpt8H6YtncFvwV-79" value="reserves" style="edgeLabel;html=1;align=center;verticalAlign=middle;resizable=0;points=[];" parent="isAUqdjpt8H6YtncFvwV-73" vertex="1" connectable="0">
          <mxGeometry x="0.1746" y="-3" relative="1" as="geometry">
            <mxPoint x="-13" y="-42" as="offset" />
          </mxGeometry>
        </mxCell>
        <mxCell id="isAUqdjpt8H6YtncFvwV-74" value="" style="endArrow=none;html=1;entryX=0.5;entryY=1;entryDx=0;entryDy=0;" parent="1" target="isAUqdjpt8H6YtncFvwV-63" edge="1">
          <mxGeometry width="50" height="50" relative="1" as="geometry">
            <mxPoint x="900" y="1110" as="sourcePoint" />
            <mxPoint x="940" y="1000" as="targetPoint" />
          </mxGeometry>
        </mxCell>
        <mxCell id="isAUqdjpt8H6YtncFvwV-75" value="" style="endArrow=none;html=1;exitX=1;exitY=0.75;exitDx=0;exitDy=0;entryX=0;entryY=0.75;entryDx=0;entryDy=0;" parent="1" source="isAUqdjpt8H6YtncFvwV-63" target="isAUqdjpt8H6YtncFvwV-57" edge="1">
          <mxGeometry width="50" height="50" relative="1" as="geometry">
            <mxPoint x="960" y="970" as="sourcePoint" />
            <mxPoint x="1010" y="920" as="targetPoint" />
          </mxGeometry>
        </mxCell>
        <mxCell id="isAUqdjpt8H6YtncFvwV-77" value="Has participant" style="edgeLabel;html=1;align=center;verticalAlign=middle;resizable=0;points=[];" parent="1" vertex="1" connectable="0">
          <mxGeometry x="1039.997102165288" y="699.9974971981949" as="geometry" />
        </mxCell>
        <mxCell id="isAUqdjpt8H6YtncFvwV-80" value="reserves" style="text;whiteSpace=wrap;html=1;" parent="1" vertex="1">
          <mxGeometry x="970" y="925" width="70" height="30" as="geometry" />
        </mxCell>
        <mxCell id="isAUqdjpt8H6YtncFvwV-81" value="" style="endArrow=none;html=1;entryX=0.107;entryY=1.039;entryDx=0;entryDy=0;entryPerimeter=0;" parent="1" target="isAUqdjpt8H6YtncFvwV-57" edge="1">
          <mxGeometry width="50" height="50" relative="1" as="geometry">
            <mxPoint x="900" y="1110" as="sourcePoint" />
            <mxPoint x="980" y="1030" as="targetPoint" />
          </mxGeometry>
        </mxCell>
        <mxCell id="isAUqdjpt8H6YtncFvwV-83" value="Has participant" style="edgeLabel;html=1;align=center;verticalAlign=middle;resizable=0;points=[];" parent="1" vertex="1" connectable="0">
          <mxGeometry x="1279.9993783655934" y="49.997222134766766" as="geometry" />
        </mxCell>
        <mxCell id="isAUqdjpt8H6YtncFvwV-84" value="SubUnit" style="rounded=0;whiteSpace=wrap;html=1;" parent="1" vertex="1">
          <mxGeometry x="40" y="730" width="120" height="60" as="geometry" />
        </mxCell>
        <mxCell id="isAUqdjpt8H6YtncFvwV-85" value="Gift Wrapping Order" style="rounded=0;whiteSpace=wrap;html=1;" parent="1" vertex="1">
          <mxGeometry x="320" y="690" width="120" height="60" as="geometry" />
        </mxCell>
        <mxCell id="isAUqdjpt8H6YtncFvwV-86" value="&lt;span style=&quot;color: rgb(33 , 37 , 41) ; font-family: , &amp;#34;blinkmacsystemfont&amp;#34; , &amp;#34;segoe ui&amp;#34; , &amp;#34;roboto&amp;#34; , &amp;#34;helvetica neue&amp;#34; , &amp;#34;arial&amp;#34; , &amp;#34;noto sans&amp;#34; , &amp;#34;liberation sans&amp;#34; , sans-serif , &amp;#34;apple color emoji&amp;#34; , &amp;#34;segoe ui emoji&amp;#34; , &amp;#34;segoe ui symbol&amp;#34; , &amp;#34;noto color emoji&amp;#34; ; font-size: 15px ; text-align: left ; background-color: rgb(255 , 255 , 255)&quot;&gt;gift-wrapping Supplier&lt;/span&gt;" style="rounded=0;whiteSpace=wrap;html=1;" parent="1" vertex="1">
          <mxGeometry x="590" y="740" width="120" height="60" as="geometry" />
        </mxCell>
        <mxCell id="isAUqdjpt8H6YtncFvwV-87" value="Gift-Warapp Delivery&lt;br&gt;OrderLine" style="rounded=0;whiteSpace=wrap;html=1;" parent="1" vertex="1">
          <mxGeometry x="200" y="910" width="120" height="60" as="geometry" />
        </mxCell>
        <mxCell id="isAUqdjpt8H6YtncFvwV-88" value="&lt;span&gt;Gift-Warapp payment&lt;/span&gt;&lt;br&gt;&lt;span&gt;OrderLine&lt;/span&gt;" style="rounded=0;whiteSpace=wrap;html=1;" parent="1" vertex="1">
          <mxGeometry x="470" y="910" width="120" height="60" as="geometry" />
        </mxCell>
        <mxCell id="isAUqdjpt8H6YtncFvwV-89" value="&lt;span&gt;Gift-Warapp Delivery&lt;/span&gt;" style="rounded=0;whiteSpace=wrap;html=1;" parent="1" vertex="1">
          <mxGeometry x="200" y="1030" width="120" height="60" as="geometry" />
        </mxCell>
        <mxCell id="isAUqdjpt8H6YtncFvwV-90" value="&lt;span&gt;Gift-Warapp Payment&lt;/span&gt;" style="rounded=0;whiteSpace=wrap;html=1;" parent="1" vertex="1">
          <mxGeometry x="470" y="1030" width="120" height="60" as="geometry" />
        </mxCell>
        <mxCell id="isAUqdjpt8H6YtncFvwV-91" value="&lt;span&gt;Gift-Warapp&lt;/span&gt;" style="rounded=0;whiteSpace=wrap;html=1;" parent="1" vertex="1">
          <mxGeometry x="40" y="1140" width="120" height="60" as="geometry" />
        </mxCell>
        <mxCell id="isAUqdjpt8H6YtncFvwV-92" value="Money" style="rounded=0;whiteSpace=wrap;html=1;" parent="1" vertex="1">
          <mxGeometry x="610" y="1150" width="120" height="60" as="geometry" />
        </mxCell>
        <mxCell id="isAUqdjpt8H6YtncFvwV-93" value="&lt;span&gt;Gift-Warapp Type&lt;/span&gt;" style="rounded=0;whiteSpace=wrap;html=1;" parent="1" vertex="1">
          <mxGeometry x="40" y="940" width="120" height="60" as="geometry" />
        </mxCell>
        <mxCell id="isAUqdjpt8H6YtncFvwV-94" value="" style="endArrow=none;html=1;exitX=1;exitY=0.5;exitDx=0;exitDy=0;entryX=-0.023;entryY=0.623;entryDx=0;entryDy=0;entryPerimeter=0;" parent="1" source="isAUqdjpt8H6YtncFvwV-84" target="isAUqdjpt8H6YtncFvwV-85" edge="1">
          <mxGeometry width="50" height="50" relative="1" as="geometry">
            <mxPoint x="170" y="800" as="sourcePoint" />
            <mxPoint x="310" y="730" as="targetPoint" />
          </mxGeometry>
        </mxCell>
        <mxCell id="isAUqdjpt8H6YtncFvwV-95" value="" style="endArrow=none;html=1;exitX=1;exitY=0.5;exitDx=0;exitDy=0;entryX=0.5;entryY=0;entryDx=0;entryDy=0;" parent="1" source="isAUqdjpt8H6YtncFvwV-85" target="isAUqdjpt8H6YtncFvwV-86" edge="1">
          <mxGeometry width="50" height="50" relative="1" as="geometry">
            <mxPoint x="480" y="750" as="sourcePoint" />
            <mxPoint x="592" y="770" as="targetPoint" />
          </mxGeometry>
        </mxCell>
        <mxCell id="isAUqdjpt8H6YtncFvwV-96" value="" style="endArrow=none;html=1;entryX=0.417;entryY=1;entryDx=0;entryDy=0;entryPerimeter=0;exitX=0.5;exitY=0;exitDx=0;exitDy=0;" parent="1" source="isAUqdjpt8H6YtncFvwV-87" target="isAUqdjpt8H6YtncFvwV-85" edge="1">
          <mxGeometry width="50" height="50" relative="1" as="geometry">
            <mxPoint x="330" y="850" as="sourcePoint" />
            <mxPoint x="380" y="800" as="targetPoint" />
          </mxGeometry>
        </mxCell>
        <mxCell id="isAUqdjpt8H6YtncFvwV-97" value="" style="endArrow=none;html=1;entryX=0.5;entryY=0;entryDx=0;entryDy=0;exitX=0.5;exitY=1;exitDx=0;exitDy=0;" parent="1" source="isAUqdjpt8H6YtncFvwV-85" target="isAUqdjpt8H6YtncFvwV-88" edge="1">
          <mxGeometry width="50" height="50" relative="1" as="geometry">
            <mxPoint x="410" y="850" as="sourcePoint" />
            <mxPoint x="460" y="800" as="targetPoint" />
          </mxGeometry>
        </mxCell>
        <mxCell id="isAUqdjpt8H6YtncFvwV-98" value="" style="endArrow=none;html=1;entryX=0;entryY=0.5;entryDx=0;entryDy=0;exitX=1;exitY=0.5;exitDx=0;exitDy=0;" parent="1" source="isAUqdjpt8H6YtncFvwV-87" target="isAUqdjpt8H6YtncFvwV-88" edge="1">
          <mxGeometry width="50" height="50" relative="1" as="geometry">
            <mxPoint x="370" y="970" as="sourcePoint" />
            <mxPoint x="420" y="920" as="targetPoint" />
          </mxGeometry>
        </mxCell>
        <mxCell id="isAUqdjpt8H6YtncFvwV-99" value="" style="endArrow=none;html=1;entryX=0;entryY=0.5;entryDx=0;entryDy=0;exitX=1;exitY=0.5;exitDx=0;exitDy=0;" parent="1" edge="1">
          <mxGeometry width="50" height="50" relative="1" as="geometry">
            <mxPoint x="320" y="1059.5" as="sourcePoint" />
            <mxPoint x="470" y="1059.5" as="targetPoint" />
          </mxGeometry>
        </mxCell>
        <mxCell id="isAUqdjpt8H6YtncFvwV-100" value="" style="endArrow=none;html=1;exitX=0.5;exitY=0;exitDx=0;exitDy=0;entryX=0.5;entryY=1;entryDx=0;entryDy=0;" parent="1" source="isAUqdjpt8H6YtncFvwV-89" target="isAUqdjpt8H6YtncFvwV-87" edge="1">
          <mxGeometry width="50" height="50" relative="1" as="geometry">
            <mxPoint x="240" y="1020" as="sourcePoint" />
            <mxPoint x="290" y="970" as="targetPoint" />
          </mxGeometry>
        </mxCell>
        <mxCell id="isAUqdjpt8H6YtncFvwV-101" value="" style="endArrow=none;html=1;exitX=0.5;exitY=0;exitDx=0;exitDy=0;entryX=0.5;entryY=1;entryDx=0;entryDy=0;" parent="1" edge="1">
          <mxGeometry width="50" height="50" relative="1" as="geometry">
            <mxPoint x="529.5" y="1030" as="sourcePoint" />
            <mxPoint x="529.5" y="970" as="targetPoint" />
          </mxGeometry>
        </mxCell>
        <mxCell id="isAUqdjpt8H6YtncFvwV-102" value="" style="endArrow=none;html=1;exitX=0.65;exitY=-0.017;exitDx=0;exitDy=0;exitPerimeter=0;entryX=0.593;entryY=1;entryDx=0;entryDy=0;entryPerimeter=0;" parent="1" source="isAUqdjpt8H6YtncFvwV-92" target="isAUqdjpt8H6YtncFvwV-90" edge="1">
          <mxGeometry width="50" height="50" relative="1" as="geometry">
            <mxPoint x="540" y="1140" as="sourcePoint" />
            <mxPoint x="590" y="1090" as="targetPoint" />
          </mxGeometry>
        </mxCell>
        <mxCell id="isAUqdjpt8H6YtncFvwV-103" value="" style="endArrow=none;html=1;exitX=0.5;exitY=0;exitDx=0;exitDy=0;" parent="1" source="isAUqdjpt8H6YtncFvwV-91" edge="1">
          <mxGeometry width="50" height="50" relative="1" as="geometry">
            <mxPoint x="204" y="1140" as="sourcePoint" />
            <mxPoint x="254" y="1090" as="targetPoint" />
          </mxGeometry>
        </mxCell>
        <mxCell id="isAUqdjpt8H6YtncFvwV-104" value="" style="endArrow=none;html=1;entryX=0.5;entryY=1;entryDx=0;entryDy=0;" parent="1" target="isAUqdjpt8H6YtncFvwV-93" edge="1">
          <mxGeometry width="50" height="50" relative="1" as="geometry">
            <mxPoint x="100" y="1140" as="sourcePoint" />
            <mxPoint x="140" y="1030" as="targetPoint" />
          </mxGeometry>
        </mxCell>
        <mxCell id="isAUqdjpt8H6YtncFvwV-105" value="" style="endArrow=none;html=1;exitX=1;exitY=0.75;exitDx=0;exitDy=0;entryX=0;entryY=0.75;entryDx=0;entryDy=0;" parent="1" source="isAUqdjpt8H6YtncFvwV-93" target="isAUqdjpt8H6YtncFvwV-87" edge="1">
          <mxGeometry width="50" height="50" relative="1" as="geometry">
            <mxPoint x="160" y="1000" as="sourcePoint" />
            <mxPoint x="210" y="950" as="targetPoint" />
          </mxGeometry>
        </mxCell>
        <mxCell id="isAUqdjpt8H6YtncFvwV-106" value="Fossils" style="rounded=0;whiteSpace=wrap;html=1;" parent="1" vertex="1">
          <mxGeometry x="240" y="460" width="120" height="60" as="geometry" />
        </mxCell>
        <mxCell id="isAUqdjpt8H6YtncFvwV-107" value="Frame" style="rounded=0;whiteSpace=wrap;html=1;" parent="1" vertex="1">
          <mxGeometry x="240" y="550" width="120" height="60" as="geometry" />
        </mxCell>
        <mxCell id="isAUqdjpt8H6YtncFvwV-108" value="" style="endArrow=none;html=1;exitX=1;exitY=0.5;exitDx=0;exitDy=0;entryX=0;entryY=0.5;entryDx=0;entryDy=0;" parent="1" source="isAUqdjpt8H6YtncFvwV-10" target="isAUqdjpt8H6YtncFvwV-106" edge="1">
          <mxGeometry width="50" height="50" relative="1" as="geometry">
            <mxPoint x="160" y="540" as="sourcePoint" />
            <mxPoint x="230" y="490" as="targetPoint" />
          </mxGeometry>
        </mxCell>
        <mxCell id="isAUqdjpt8H6YtncFvwV-110" value="" style="endArrow=none;html=1;entryX=0;entryY=0.5;entryDx=0;entryDy=0;exitX=1;exitY=0.5;exitDx=0;exitDy=0;" parent="1" source="isAUqdjpt8H6YtncFvwV-10" target="isAUqdjpt8H6YtncFvwV-107" edge="1">
          <mxGeometry width="50" height="50" relative="1" as="geometry">
            <mxPoint x="80" y="630" as="sourcePoint" />
            <mxPoint x="130" y="580" as="targetPoint" />
          </mxGeometry>
        </mxCell>
        <mxCell id="isAUqdjpt8H6YtncFvwV-112" value="reserves" style="endArrow=none;html=1;entryX=0.25;entryY=1;entryDx=0;entryDy=0;" parent="1" target="isAUqdjpt8H6YtncFvwV-6" edge="1">
          <mxGeometry width="50" height="50" relative="1" as="geometry">
            <mxPoint x="80" y="470" as="sourcePoint" />
            <mxPoint x="280" y="290" as="targetPoint" />
          </mxGeometry>
        </mxCell>
        <mxCell id="isAUqdjpt8H6YtncFvwV-113" value="" style="endArrow=none;html=1;entryX=0.395;entryY=1.016;entryDx=0;entryDy=0;entryPerimeter=0;" parent="1" target="isAUqdjpt8H6YtncFvwV-8" edge="1">
          <mxGeometry width="50" height="50" relative="1" as="geometry">
            <mxPoint x="140" y="500" as="sourcePoint" />
            <mxPoint x="240" y="450" as="targetPoint" />
          </mxGeometry>
        </mxCell>
      </root>
    </mxGraphModel>
  </diagram>
</mxfile>
